# xmcd
#
# Track frame offsets: 
#        150
#        14935
#        27850
#        39010
#        58857
#        73057
#        90197
#        105087
#        118282
#        131842
#        143840
#        155680
#
# Disc length: 2296 seconds
#
# Revision: 2
# Processed by: cddbd v1.5.1PL0 Copyright (c) Steve Scherf et al.
# Submitted via: ExactAudioCopy v0.95a5
#
DISCID=a108f60c
DTITLE=Marlee MacLeod - There We Are
DYEAR=2000
DGENRE=Rock
TTITLE0=Cautionary Tale
TTITLE1=Then Again
TTITLE2=Ride
TTITLE3=Walk You Home
TTITLE4=Ever After
TTITLE5=Better Than
TTITLE6=Such A Hammer
TTITLE7=All Is Well
TTITLE8=You Already Know
TTITLE9=Autherine
TTITLE10=Are You Leaving?
TTITLE11=Universe
EXTD=
EXTT0=
EXTT1=
EXTT2=
EXTT3=
EXTT4=
EXTT5=
EXTT6=
EXTT7=
EXTT8=
EXTT9=
EXTT10=
EXTT11=
PLAYORDER=
